M48
; DRILL file {KiCad 9.0.6} date 2026-03-07T19:04:22-0300
; FORMAT={-:-/ absolute / metric / decimal}
; #@! TF.CreationDate,2026-03-07T19:04:22-03:00
; #@! TF.GenerationSoftware,Kicad,Pcbnew,9.0.6
; #@! TF.FileFunction,Plated,1,2,PTH
FMAT,2
METRIC
; #@! TA.AperFunction,Plated,PTH,ComponentDrill
T1C0.150
; #@! TA.AperFunction,Plated,PTH,ViaDrill
T2C0.300
%
G90
G05
T1
X66.525Y-53.485
X66.525Y-54.755
X66.525Y-56.025
X66.525Y-57.295
X66.525Y-58.565
X66.525Y-59.835
X66.525Y-61.105
X75.475Y-53.49
X75.475Y-54.76
X75.475Y-56.03
X75.475Y-57.3
X75.475Y-58.57
X75.475Y-59.84
X75.475Y-61.11
X86.025Y-50.945
X86.025Y-52.215
X86.025Y-53.485
X86.025Y-54.755
X86.025Y-56.025
X86.025Y-57.295
X86.025Y-58.565
X86.025Y-59.835
X86.025Y-61.105
X86.025Y-62.375
X86.025Y-68.77
X86.025Y-70.04
X86.025Y-71.31
X86.025Y-72.58
X86.025Y-73.85
X86.025Y-75.12
X86.025Y-76.39
X86.025Y-77.66
X86.025Y-78.93
X86.025Y-80.2
X94.975Y-50.95
X94.975Y-52.22
X94.975Y-53.49
X94.975Y-54.76
X94.975Y-56.03
X94.975Y-57.3
X94.975Y-58.57
X94.975Y-59.84
X94.975Y-61.11
X94.975Y-62.38
X94.975Y-68.77
X94.975Y-70.04
X94.975Y-71.31
X94.975Y-72.58
X94.975Y-73.85
X94.975Y-75.12
X94.975Y-76.39
X94.975Y-77.66
X94.975Y-78.93
X94.975Y-80.2
T2
X96.25Y-80.2
X101.186Y-62.1
X101.2Y-61.3
X103.1Y-80.3
X104.0Y-62.2
X104.1Y-66.2
X104.1Y-68.7
X106.0Y-63.0
M30
