%TF.GenerationSoftware,KiCad,Pcbnew,9.0.6*%
%TF.CreationDate,2026-03-07T19:04:27-03:00*%
%TF.ProjectId,fpc,6670632e-6b69-4636-9164-5f7063625858,rev?*%
%TF.SameCoordinates,Original*%
%TF.FileFunction,Legend,Top*%
%TF.FilePolarity,Positive*%
%FSLAX46Y46*%
G04 Gerber Fmt 4.6, Leading zero omitted, Abs format (unit mm)*
G04 Created by KiCad (PCBNEW 9.0.6) date 2026-03-07 19:04:27*
%MOMM*%
%LPD*%
G01*
G04 APERTURE LIST*
%ADD10C,0.100000*%
%ADD11C,0.125000*%
%ADD12C,0.120000*%
G04 APERTURE END LIST*
D10*
X97275312Y-60734990D02*
X97199122Y-60696895D01*
X97199122Y-60696895D02*
X97084836Y-60696895D01*
X97084836Y-60696895D02*
X96970550Y-60734990D01*
X96970550Y-60734990D02*
X96894360Y-60811180D01*
X96894360Y-60811180D02*
X96856265Y-60887371D01*
X96856265Y-60887371D02*
X96818169Y-61039752D01*
X96818169Y-61039752D02*
X96818169Y-61154038D01*
X96818169Y-61154038D02*
X96856265Y-61306419D01*
X96856265Y-61306419D02*
X96894360Y-61382609D01*
X96894360Y-61382609D02*
X96970550Y-61458800D01*
X96970550Y-61458800D02*
X97084836Y-61496895D01*
X97084836Y-61496895D02*
X97161027Y-61496895D01*
X97161027Y-61496895D02*
X97275312Y-61458800D01*
X97275312Y-61458800D02*
X97313408Y-61420704D01*
X97313408Y-61420704D02*
X97313408Y-61154038D01*
X97313408Y-61154038D02*
X97161027Y-61154038D01*
X98075312Y-61496895D02*
X97618169Y-61496895D01*
X97846741Y-61496895D02*
X97846741Y-60696895D01*
X97846741Y-60696895D02*
X97770550Y-60811180D01*
X97770550Y-60811180D02*
X97694360Y-60887371D01*
X97694360Y-60887371D02*
X97618169Y-60925466D01*
D11*
X103704762Y-79619404D02*
X103666666Y-79657500D01*
X103666666Y-79657500D02*
X103552381Y-79695595D01*
X103552381Y-79695595D02*
X103476190Y-79695595D01*
X103476190Y-79695595D02*
X103361904Y-79657500D01*
X103361904Y-79657500D02*
X103285714Y-79581309D01*
X103285714Y-79581309D02*
X103247619Y-79505119D01*
X103247619Y-79505119D02*
X103209523Y-79352738D01*
X103209523Y-79352738D02*
X103209523Y-79238452D01*
X103209523Y-79238452D02*
X103247619Y-79086071D01*
X103247619Y-79086071D02*
X103285714Y-79009880D01*
X103285714Y-79009880D02*
X103361904Y-78933690D01*
X103361904Y-78933690D02*
X103476190Y-78895595D01*
X103476190Y-78895595D02*
X103552381Y-78895595D01*
X103552381Y-78895595D02*
X103666666Y-78933690D01*
X103666666Y-78933690D02*
X103704762Y-78971785D01*
X104009523Y-79657500D02*
X104123809Y-79695595D01*
X104123809Y-79695595D02*
X104314285Y-79695595D01*
X104314285Y-79695595D02*
X104390476Y-79657500D01*
X104390476Y-79657500D02*
X104428571Y-79619404D01*
X104428571Y-79619404D02*
X104466666Y-79543214D01*
X104466666Y-79543214D02*
X104466666Y-79467023D01*
X104466666Y-79467023D02*
X104428571Y-79390833D01*
X104428571Y-79390833D02*
X104390476Y-79352738D01*
X104390476Y-79352738D02*
X104314285Y-79314642D01*
X104314285Y-79314642D02*
X104161904Y-79276547D01*
X104161904Y-79276547D02*
X104085714Y-79238452D01*
X104085714Y-79238452D02*
X104047619Y-79200357D01*
X104047619Y-79200357D02*
X104009523Y-79124166D01*
X104009523Y-79124166D02*
X104009523Y-79047976D01*
X104009523Y-79047976D02*
X104047619Y-78971785D01*
X104047619Y-78971785D02*
X104085714Y-78933690D01*
X104085714Y-78933690D02*
X104161904Y-78895595D01*
X104161904Y-78895595D02*
X104352381Y-78895595D01*
X104352381Y-78895595D02*
X104466666Y-78933690D01*
X104961905Y-79314642D02*
X104961905Y-79695595D01*
X104695238Y-78895595D02*
X104961905Y-79314642D01*
X104961905Y-79314642D02*
X105228571Y-78895595D01*
X105495238Y-79695595D02*
X105495238Y-78895595D01*
X105495238Y-78895595D02*
X105952381Y-79695595D01*
X105952381Y-79695595D02*
X105952381Y-78895595D01*
X106790476Y-79619404D02*
X106752380Y-79657500D01*
X106752380Y-79657500D02*
X106638095Y-79695595D01*
X106638095Y-79695595D02*
X106561904Y-79695595D01*
X106561904Y-79695595D02*
X106447618Y-79657500D01*
X106447618Y-79657500D02*
X106371428Y-79581309D01*
X106371428Y-79581309D02*
X106333333Y-79505119D01*
X106333333Y-79505119D02*
X106295237Y-79352738D01*
X106295237Y-79352738D02*
X106295237Y-79238452D01*
X106295237Y-79238452D02*
X106333333Y-79086071D01*
X106333333Y-79086071D02*
X106371428Y-79009880D01*
X106371428Y-79009880D02*
X106447618Y-78933690D01*
X106447618Y-78933690D02*
X106561904Y-78895595D01*
X106561904Y-78895595D02*
X106638095Y-78895595D01*
X106638095Y-78895595D02*
X106752380Y-78933690D01*
X106752380Y-78933690D02*
X106790476Y-78971785D01*
D10*
X83613408Y-74296895D02*
X83346741Y-73915942D01*
X83156265Y-74296895D02*
X83156265Y-73496895D01*
X83156265Y-73496895D02*
X83461027Y-73496895D01*
X83461027Y-73496895D02*
X83537217Y-73534990D01*
X83537217Y-73534990D02*
X83575312Y-73573085D01*
X83575312Y-73573085D02*
X83613408Y-73649276D01*
X83613408Y-73649276D02*
X83613408Y-73763561D01*
X83613408Y-73763561D02*
X83575312Y-73839752D01*
X83575312Y-73839752D02*
X83537217Y-73877847D01*
X83537217Y-73877847D02*
X83461027Y-73915942D01*
X83461027Y-73915942D02*
X83156265Y-73915942D01*
X83918169Y-73573085D02*
X83956265Y-73534990D01*
X83956265Y-73534990D02*
X84032455Y-73496895D01*
X84032455Y-73496895D02*
X84222931Y-73496895D01*
X84222931Y-73496895D02*
X84299122Y-73534990D01*
X84299122Y-73534990D02*
X84337217Y-73573085D01*
X84337217Y-73573085D02*
X84375312Y-73649276D01*
X84375312Y-73649276D02*
X84375312Y-73725466D01*
X84375312Y-73725466D02*
X84337217Y-73839752D01*
X84337217Y-73839752D02*
X83880074Y-74296895D01*
X83880074Y-74296895D02*
X84375312Y-74296895D01*
X83613408Y-70496895D02*
X83346741Y-70115942D01*
X83156265Y-70496895D02*
X83156265Y-69696895D01*
X83156265Y-69696895D02*
X83461027Y-69696895D01*
X83461027Y-69696895D02*
X83537217Y-69734990D01*
X83537217Y-69734990D02*
X83575312Y-69773085D01*
X83575312Y-69773085D02*
X83613408Y-69849276D01*
X83613408Y-69849276D02*
X83613408Y-69963561D01*
X83613408Y-69963561D02*
X83575312Y-70039752D01*
X83575312Y-70039752D02*
X83537217Y-70077847D01*
X83537217Y-70077847D02*
X83461027Y-70115942D01*
X83461027Y-70115942D02*
X83156265Y-70115942D01*
X84375312Y-70496895D02*
X83918169Y-70496895D01*
X84146741Y-70496895D02*
X84146741Y-69696895D01*
X84146741Y-69696895D02*
X84070550Y-69811180D01*
X84070550Y-69811180D02*
X83994360Y-69887371D01*
X83994360Y-69887371D02*
X83918169Y-69925466D01*
X83613408Y-75596895D02*
X83346741Y-75215942D01*
X83156265Y-75596895D02*
X83156265Y-74796895D01*
X83156265Y-74796895D02*
X83461027Y-74796895D01*
X83461027Y-74796895D02*
X83537217Y-74834990D01*
X83537217Y-74834990D02*
X83575312Y-74873085D01*
X83575312Y-74873085D02*
X83613408Y-74949276D01*
X83613408Y-74949276D02*
X83613408Y-75063561D01*
X83613408Y-75063561D02*
X83575312Y-75139752D01*
X83575312Y-75139752D02*
X83537217Y-75177847D01*
X83537217Y-75177847D02*
X83461027Y-75215942D01*
X83461027Y-75215942D02*
X83156265Y-75215942D01*
X83880074Y-74796895D02*
X84375312Y-74796895D01*
X84375312Y-74796895D02*
X84108646Y-75101657D01*
X84108646Y-75101657D02*
X84222931Y-75101657D01*
X84222931Y-75101657D02*
X84299122Y-75139752D01*
X84299122Y-75139752D02*
X84337217Y-75177847D01*
X84337217Y-75177847D02*
X84375312Y-75254038D01*
X84375312Y-75254038D02*
X84375312Y-75444514D01*
X84375312Y-75444514D02*
X84337217Y-75520704D01*
X84337217Y-75520704D02*
X84299122Y-75558800D01*
X84299122Y-75558800D02*
X84222931Y-75596895D01*
X84222931Y-75596895D02*
X83994360Y-75596895D01*
X83994360Y-75596895D02*
X83918169Y-75558800D01*
X83918169Y-75558800D02*
X83880074Y-75520704D01*
X83613408Y-79396895D02*
X83346741Y-79015942D01*
X83156265Y-79396895D02*
X83156265Y-78596895D01*
X83156265Y-78596895D02*
X83461027Y-78596895D01*
X83461027Y-78596895D02*
X83537217Y-78634990D01*
X83537217Y-78634990D02*
X83575312Y-78673085D01*
X83575312Y-78673085D02*
X83613408Y-78749276D01*
X83613408Y-78749276D02*
X83613408Y-78863561D01*
X83613408Y-78863561D02*
X83575312Y-78939752D01*
X83575312Y-78939752D02*
X83537217Y-78977847D01*
X83537217Y-78977847D02*
X83461027Y-79015942D01*
X83461027Y-79015942D02*
X83156265Y-79015942D01*
X84299122Y-78863561D02*
X84299122Y-79396895D01*
X84108646Y-78558800D02*
X83918169Y-79130228D01*
X83918169Y-79130228D02*
X84413408Y-79130228D01*
X97275312Y-56934990D02*
X97199122Y-56896895D01*
X97199122Y-56896895D02*
X97084836Y-56896895D01*
X97084836Y-56896895D02*
X96970550Y-56934990D01*
X96970550Y-56934990D02*
X96894360Y-57011180D01*
X96894360Y-57011180D02*
X96856265Y-57087371D01*
X96856265Y-57087371D02*
X96818169Y-57239752D01*
X96818169Y-57239752D02*
X96818169Y-57354038D01*
X96818169Y-57354038D02*
X96856265Y-57506419D01*
X96856265Y-57506419D02*
X96894360Y-57582609D01*
X96894360Y-57582609D02*
X96970550Y-57658800D01*
X96970550Y-57658800D02*
X97084836Y-57696895D01*
X97084836Y-57696895D02*
X97161027Y-57696895D01*
X97161027Y-57696895D02*
X97275312Y-57658800D01*
X97275312Y-57658800D02*
X97313408Y-57620704D01*
X97313408Y-57620704D02*
X97313408Y-57354038D01*
X97313408Y-57354038D02*
X97161027Y-57354038D01*
X97618169Y-56973085D02*
X97656265Y-56934990D01*
X97656265Y-56934990D02*
X97732455Y-56896895D01*
X97732455Y-56896895D02*
X97922931Y-56896895D01*
X97922931Y-56896895D02*
X97999122Y-56934990D01*
X97999122Y-56934990D02*
X98037217Y-56973085D01*
X98037217Y-56973085D02*
X98075312Y-57049276D01*
X98075312Y-57049276D02*
X98075312Y-57125466D01*
X98075312Y-57125466D02*
X98037217Y-57239752D01*
X98037217Y-57239752D02*
X97580074Y-57696895D01*
X97580074Y-57696895D02*
X98075312Y-57696895D01*
X96856265Y-80426895D02*
X96856265Y-79626895D01*
X96856265Y-79626895D02*
X97161027Y-79626895D01*
X97161027Y-79626895D02*
X97237217Y-79664990D01*
X97237217Y-79664990D02*
X97275312Y-79703085D01*
X97275312Y-79703085D02*
X97313408Y-79779276D01*
X97313408Y-79779276D02*
X97313408Y-79893561D01*
X97313408Y-79893561D02*
X97275312Y-79969752D01*
X97275312Y-79969752D02*
X97237217Y-80007847D01*
X97237217Y-80007847D02*
X97161027Y-80045942D01*
X97161027Y-80045942D02*
X96856265Y-80045942D01*
X98113408Y-80350704D02*
X98075312Y-80388800D01*
X98075312Y-80388800D02*
X97961027Y-80426895D01*
X97961027Y-80426895D02*
X97884836Y-80426895D01*
X97884836Y-80426895D02*
X97770550Y-80388800D01*
X97770550Y-80388800D02*
X97694360Y-80312609D01*
X97694360Y-80312609D02*
X97656265Y-80236419D01*
X97656265Y-80236419D02*
X97618169Y-80084038D01*
X97618169Y-80084038D02*
X97618169Y-79969752D01*
X97618169Y-79969752D02*
X97656265Y-79817371D01*
X97656265Y-79817371D02*
X97694360Y-79741180D01*
X97694360Y-79741180D02*
X97770550Y-79664990D01*
X97770550Y-79664990D02*
X97884836Y-79626895D01*
X97884836Y-79626895D02*
X97961027Y-79626895D01*
X97961027Y-79626895D02*
X98075312Y-79664990D01*
X98075312Y-79664990D02*
X98113408Y-79703085D01*
X98837217Y-80426895D02*
X98456265Y-80426895D01*
X98456265Y-80426895D02*
X98456265Y-79626895D01*
X99103884Y-80426895D02*
X99103884Y-79626895D01*
X99561027Y-80426895D02*
X99218169Y-79969752D01*
X99561027Y-79626895D02*
X99103884Y-80084038D01*
X97275312Y-55534990D02*
X97199122Y-55496895D01*
X97199122Y-55496895D02*
X97084836Y-55496895D01*
X97084836Y-55496895D02*
X96970550Y-55534990D01*
X96970550Y-55534990D02*
X96894360Y-55611180D01*
X96894360Y-55611180D02*
X96856265Y-55687371D01*
X96856265Y-55687371D02*
X96818169Y-55839752D01*
X96818169Y-55839752D02*
X96818169Y-55954038D01*
X96818169Y-55954038D02*
X96856265Y-56106419D01*
X96856265Y-56106419D02*
X96894360Y-56182609D01*
X96894360Y-56182609D02*
X96970550Y-56258800D01*
X96970550Y-56258800D02*
X97084836Y-56296895D01*
X97084836Y-56296895D02*
X97161027Y-56296895D01*
X97161027Y-56296895D02*
X97275312Y-56258800D01*
X97275312Y-56258800D02*
X97313408Y-56220704D01*
X97313408Y-56220704D02*
X97313408Y-55954038D01*
X97313408Y-55954038D02*
X97161027Y-55954038D01*
X97580074Y-55496895D02*
X98075312Y-55496895D01*
X98075312Y-55496895D02*
X97808646Y-55801657D01*
X97808646Y-55801657D02*
X97922931Y-55801657D01*
X97922931Y-55801657D02*
X97999122Y-55839752D01*
X97999122Y-55839752D02*
X98037217Y-55877847D01*
X98037217Y-55877847D02*
X98075312Y-55954038D01*
X98075312Y-55954038D02*
X98075312Y-56144514D01*
X98075312Y-56144514D02*
X98037217Y-56220704D01*
X98037217Y-56220704D02*
X97999122Y-56258800D01*
X97999122Y-56258800D02*
X97922931Y-56296895D01*
X97922931Y-56296895D02*
X97694360Y-56296895D01*
X97694360Y-56296895D02*
X97618169Y-56258800D01*
X97618169Y-56258800D02*
X97580074Y-56220704D01*
X97313408Y-74296895D02*
X97046741Y-73915942D01*
X96856265Y-74296895D02*
X96856265Y-73496895D01*
X96856265Y-73496895D02*
X97161027Y-73496895D01*
X97161027Y-73496895D02*
X97237217Y-73534990D01*
X97237217Y-73534990D02*
X97275312Y-73573085D01*
X97275312Y-73573085D02*
X97313408Y-73649276D01*
X97313408Y-73649276D02*
X97313408Y-73763561D01*
X97313408Y-73763561D02*
X97275312Y-73839752D01*
X97275312Y-73839752D02*
X97237217Y-73877847D01*
X97237217Y-73877847D02*
X97161027Y-73915942D01*
X97161027Y-73915942D02*
X96856265Y-73915942D01*
X97808646Y-73496895D02*
X97884836Y-73496895D01*
X97884836Y-73496895D02*
X97961027Y-73534990D01*
X97961027Y-73534990D02*
X97999122Y-73573085D01*
X97999122Y-73573085D02*
X98037217Y-73649276D01*
X98037217Y-73649276D02*
X98075312Y-73801657D01*
X98075312Y-73801657D02*
X98075312Y-73992133D01*
X98075312Y-73992133D02*
X98037217Y-74144514D01*
X98037217Y-74144514D02*
X97999122Y-74220704D01*
X97999122Y-74220704D02*
X97961027Y-74258800D01*
X97961027Y-74258800D02*
X97884836Y-74296895D01*
X97884836Y-74296895D02*
X97808646Y-74296895D01*
X97808646Y-74296895D02*
X97732455Y-74258800D01*
X97732455Y-74258800D02*
X97694360Y-74220704D01*
X97694360Y-74220704D02*
X97656265Y-74144514D01*
X97656265Y-74144514D02*
X97618169Y-73992133D01*
X97618169Y-73992133D02*
X97618169Y-73801657D01*
X97618169Y-73801657D02*
X97656265Y-73649276D01*
X97656265Y-73649276D02*
X97694360Y-73573085D01*
X97694360Y-73573085D02*
X97732455Y-73534990D01*
X97732455Y-73534990D02*
X97808646Y-73496895D01*
X97275312Y-74834990D02*
X97199122Y-74796895D01*
X97199122Y-74796895D02*
X97084836Y-74796895D01*
X97084836Y-74796895D02*
X96970550Y-74834990D01*
X96970550Y-74834990D02*
X96894360Y-74911180D01*
X96894360Y-74911180D02*
X96856265Y-74987371D01*
X96856265Y-74987371D02*
X96818169Y-75139752D01*
X96818169Y-75139752D02*
X96818169Y-75254038D01*
X96818169Y-75254038D02*
X96856265Y-75406419D01*
X96856265Y-75406419D02*
X96894360Y-75482609D01*
X96894360Y-75482609D02*
X96970550Y-75558800D01*
X96970550Y-75558800D02*
X97084836Y-75596895D01*
X97084836Y-75596895D02*
X97161027Y-75596895D01*
X97161027Y-75596895D02*
X97275312Y-75558800D01*
X97275312Y-75558800D02*
X97313408Y-75520704D01*
X97313408Y-75520704D02*
X97313408Y-75254038D01*
X97313408Y-75254038D02*
X97161027Y-75254038D01*
X97808646Y-74796895D02*
X97884836Y-74796895D01*
X97884836Y-74796895D02*
X97961027Y-74834990D01*
X97961027Y-74834990D02*
X97999122Y-74873085D01*
X97999122Y-74873085D02*
X98037217Y-74949276D01*
X98037217Y-74949276D02*
X98075312Y-75101657D01*
X98075312Y-75101657D02*
X98075312Y-75292133D01*
X98075312Y-75292133D02*
X98037217Y-75444514D01*
X98037217Y-75444514D02*
X97999122Y-75520704D01*
X97999122Y-75520704D02*
X97961027Y-75558800D01*
X97961027Y-75558800D02*
X97884836Y-75596895D01*
X97884836Y-75596895D02*
X97808646Y-75596895D01*
X97808646Y-75596895D02*
X97732455Y-75558800D01*
X97732455Y-75558800D02*
X97694360Y-75520704D01*
X97694360Y-75520704D02*
X97656265Y-75444514D01*
X97656265Y-75444514D02*
X97618169Y-75292133D01*
X97618169Y-75292133D02*
X97618169Y-75101657D01*
X97618169Y-75101657D02*
X97656265Y-74949276D01*
X97656265Y-74949276D02*
X97694360Y-74873085D01*
X97694360Y-74873085D02*
X97732455Y-74834990D01*
X97732455Y-74834990D02*
X97808646Y-74796895D01*
X97122931Y-78877847D02*
X97237217Y-78915942D01*
X97237217Y-78915942D02*
X97275312Y-78954038D01*
X97275312Y-78954038D02*
X97313408Y-79030228D01*
X97313408Y-79030228D02*
X97313408Y-79144514D01*
X97313408Y-79144514D02*
X97275312Y-79220704D01*
X97275312Y-79220704D02*
X97237217Y-79258800D01*
X97237217Y-79258800D02*
X97161027Y-79296895D01*
X97161027Y-79296895D02*
X96856265Y-79296895D01*
X96856265Y-79296895D02*
X96856265Y-78496895D01*
X96856265Y-78496895D02*
X97122931Y-78496895D01*
X97122931Y-78496895D02*
X97199122Y-78534990D01*
X97199122Y-78534990D02*
X97237217Y-78573085D01*
X97237217Y-78573085D02*
X97275312Y-78649276D01*
X97275312Y-78649276D02*
X97275312Y-78725466D01*
X97275312Y-78725466D02*
X97237217Y-78801657D01*
X97237217Y-78801657D02*
X97199122Y-78839752D01*
X97199122Y-78839752D02*
X97122931Y-78877847D01*
X97122931Y-78877847D02*
X96856265Y-78877847D01*
X97808646Y-78496895D02*
X97884836Y-78496895D01*
X97884836Y-78496895D02*
X97961027Y-78534990D01*
X97961027Y-78534990D02*
X97999122Y-78573085D01*
X97999122Y-78573085D02*
X98037217Y-78649276D01*
X98037217Y-78649276D02*
X98075312Y-78801657D01*
X98075312Y-78801657D02*
X98075312Y-78992133D01*
X98075312Y-78992133D02*
X98037217Y-79144514D01*
X98037217Y-79144514D02*
X97999122Y-79220704D01*
X97999122Y-79220704D02*
X97961027Y-79258800D01*
X97961027Y-79258800D02*
X97884836Y-79296895D01*
X97884836Y-79296895D02*
X97808646Y-79296895D01*
X97808646Y-79296895D02*
X97732455Y-79258800D01*
X97732455Y-79258800D02*
X97694360Y-79220704D01*
X97694360Y-79220704D02*
X97656265Y-79144514D01*
X97656265Y-79144514D02*
X97618169Y-78992133D01*
X97618169Y-78992133D02*
X97618169Y-78801657D01*
X97618169Y-78801657D02*
X97656265Y-78649276D01*
X97656265Y-78649276D02*
X97694360Y-78573085D01*
X97694360Y-78573085D02*
X97732455Y-78534990D01*
X97732455Y-78534990D02*
X97808646Y-78496895D01*
X97275312Y-51934990D02*
X97199122Y-51896895D01*
X97199122Y-51896895D02*
X97084836Y-51896895D01*
X97084836Y-51896895D02*
X96970550Y-51934990D01*
X96970550Y-51934990D02*
X96894360Y-52011180D01*
X96894360Y-52011180D02*
X96856265Y-52087371D01*
X96856265Y-52087371D02*
X96818169Y-52239752D01*
X96818169Y-52239752D02*
X96818169Y-52354038D01*
X96818169Y-52354038D02*
X96856265Y-52506419D01*
X96856265Y-52506419D02*
X96894360Y-52582609D01*
X96894360Y-52582609D02*
X96970550Y-52658800D01*
X96970550Y-52658800D02*
X97084836Y-52696895D01*
X97084836Y-52696895D02*
X97161027Y-52696895D01*
X97161027Y-52696895D02*
X97275312Y-52658800D01*
X97275312Y-52658800D02*
X97313408Y-52620704D01*
X97313408Y-52620704D02*
X97313408Y-52354038D01*
X97313408Y-52354038D02*
X97161027Y-52354038D01*
X97999122Y-52163561D02*
X97999122Y-52696895D01*
X97808646Y-51858800D02*
X97618169Y-52430228D01*
X97618169Y-52430228D02*
X98113408Y-52430228D01*
X83422931Y-60907847D02*
X83537217Y-60945942D01*
X83537217Y-60945942D02*
X83575312Y-60984038D01*
X83575312Y-60984038D02*
X83613408Y-61060228D01*
X83613408Y-61060228D02*
X83613408Y-61174514D01*
X83613408Y-61174514D02*
X83575312Y-61250704D01*
X83575312Y-61250704D02*
X83537217Y-61288800D01*
X83537217Y-61288800D02*
X83461027Y-61326895D01*
X83461027Y-61326895D02*
X83156265Y-61326895D01*
X83156265Y-61326895D02*
X83156265Y-60526895D01*
X83156265Y-60526895D02*
X83422931Y-60526895D01*
X83422931Y-60526895D02*
X83499122Y-60564990D01*
X83499122Y-60564990D02*
X83537217Y-60603085D01*
X83537217Y-60603085D02*
X83575312Y-60679276D01*
X83575312Y-60679276D02*
X83575312Y-60755466D01*
X83575312Y-60755466D02*
X83537217Y-60831657D01*
X83537217Y-60831657D02*
X83499122Y-60869752D01*
X83499122Y-60869752D02*
X83422931Y-60907847D01*
X83422931Y-60907847D02*
X83156265Y-60907847D01*
X84299122Y-60793561D02*
X84299122Y-61326895D01*
X84108646Y-60488800D02*
X83918169Y-61060228D01*
X83918169Y-61060228D02*
X84413408Y-61060228D01*
X83422931Y-57277847D02*
X83537217Y-57315942D01*
X83537217Y-57315942D02*
X83575312Y-57354038D01*
X83575312Y-57354038D02*
X83613408Y-57430228D01*
X83613408Y-57430228D02*
X83613408Y-57544514D01*
X83613408Y-57544514D02*
X83575312Y-57620704D01*
X83575312Y-57620704D02*
X83537217Y-57658800D01*
X83537217Y-57658800D02*
X83461027Y-57696895D01*
X83461027Y-57696895D02*
X83156265Y-57696895D01*
X83156265Y-57696895D02*
X83156265Y-56896895D01*
X83156265Y-56896895D02*
X83422931Y-56896895D01*
X83422931Y-56896895D02*
X83499122Y-56934990D01*
X83499122Y-56934990D02*
X83537217Y-56973085D01*
X83537217Y-56973085D02*
X83575312Y-57049276D01*
X83575312Y-57049276D02*
X83575312Y-57125466D01*
X83575312Y-57125466D02*
X83537217Y-57201657D01*
X83537217Y-57201657D02*
X83499122Y-57239752D01*
X83499122Y-57239752D02*
X83422931Y-57277847D01*
X83422931Y-57277847D02*
X83156265Y-57277847D01*
X83880074Y-56896895D02*
X84375312Y-56896895D01*
X84375312Y-56896895D02*
X84108646Y-57201657D01*
X84108646Y-57201657D02*
X84222931Y-57201657D01*
X84222931Y-57201657D02*
X84299122Y-57239752D01*
X84299122Y-57239752D02*
X84337217Y-57277847D01*
X84337217Y-57277847D02*
X84375312Y-57354038D01*
X84375312Y-57354038D02*
X84375312Y-57544514D01*
X84375312Y-57544514D02*
X84337217Y-57620704D01*
X84337217Y-57620704D02*
X84299122Y-57658800D01*
X84299122Y-57658800D02*
X84222931Y-57696895D01*
X84222931Y-57696895D02*
X83994360Y-57696895D01*
X83994360Y-57696895D02*
X83918169Y-57658800D01*
X83918169Y-57658800D02*
X83880074Y-57620704D01*
X63238973Y-52496895D02*
X63238973Y-51696895D01*
X63238973Y-51696895D02*
X63429449Y-51696895D01*
X63429449Y-51696895D02*
X63543735Y-51734990D01*
X63543735Y-51734990D02*
X63619925Y-51811180D01*
X63619925Y-51811180D02*
X63658020Y-51887371D01*
X63658020Y-51887371D02*
X63696116Y-52039752D01*
X63696116Y-52039752D02*
X63696116Y-52154038D01*
X63696116Y-52154038D02*
X63658020Y-52306419D01*
X63658020Y-52306419D02*
X63619925Y-52382609D01*
X63619925Y-52382609D02*
X63543735Y-52458800D01*
X63543735Y-52458800D02*
X63429449Y-52496895D01*
X63429449Y-52496895D02*
X63238973Y-52496895D01*
X64000877Y-52268323D02*
X64381830Y-52268323D01*
X63924687Y-52496895D02*
X64191354Y-51696895D01*
X64191354Y-51696895D02*
X64458020Y-52496895D01*
X65181830Y-52496895D02*
X64915163Y-52115942D01*
X64724687Y-52496895D02*
X64724687Y-51696895D01*
X64724687Y-51696895D02*
X65029449Y-51696895D01*
X65029449Y-51696895D02*
X65105639Y-51734990D01*
X65105639Y-51734990D02*
X65143734Y-51773085D01*
X65143734Y-51773085D02*
X65181830Y-51849276D01*
X65181830Y-51849276D02*
X65181830Y-51963561D01*
X65181830Y-51963561D02*
X65143734Y-52039752D01*
X65143734Y-52039752D02*
X65105639Y-52077847D01*
X65105639Y-52077847D02*
X65029449Y-52115942D01*
X65029449Y-52115942D02*
X64724687Y-52115942D01*
X65524687Y-52496895D02*
X65524687Y-51696895D01*
X65981830Y-52496895D02*
X65638972Y-52039752D01*
X65981830Y-51696895D02*
X65524687Y-52154038D01*
X83422931Y-52077847D02*
X83537217Y-52115942D01*
X83537217Y-52115942D02*
X83575312Y-52154038D01*
X83575312Y-52154038D02*
X83613408Y-52230228D01*
X83613408Y-52230228D02*
X83613408Y-52344514D01*
X83613408Y-52344514D02*
X83575312Y-52420704D01*
X83575312Y-52420704D02*
X83537217Y-52458800D01*
X83537217Y-52458800D02*
X83461027Y-52496895D01*
X83461027Y-52496895D02*
X83156265Y-52496895D01*
X83156265Y-52496895D02*
X83156265Y-51696895D01*
X83156265Y-51696895D02*
X83422931Y-51696895D01*
X83422931Y-51696895D02*
X83499122Y-51734990D01*
X83499122Y-51734990D02*
X83537217Y-51773085D01*
X83537217Y-51773085D02*
X83575312Y-51849276D01*
X83575312Y-51849276D02*
X83575312Y-51925466D01*
X83575312Y-51925466D02*
X83537217Y-52001657D01*
X83537217Y-52001657D02*
X83499122Y-52039752D01*
X83499122Y-52039752D02*
X83422931Y-52077847D01*
X83422931Y-52077847D02*
X83156265Y-52077847D01*
X84375312Y-52496895D02*
X83918169Y-52496895D01*
X84146741Y-52496895D02*
X84146741Y-51696895D01*
X84146741Y-51696895D02*
X84070550Y-51811180D01*
X84070550Y-51811180D02*
X83994360Y-51887371D01*
X83994360Y-51887371D02*
X83918169Y-51925466D01*
X77418169Y-60258800D02*
X77532455Y-60296895D01*
X77532455Y-60296895D02*
X77722931Y-60296895D01*
X77722931Y-60296895D02*
X77799122Y-60258800D01*
X77799122Y-60258800D02*
X77837217Y-60220704D01*
X77837217Y-60220704D02*
X77875312Y-60144514D01*
X77875312Y-60144514D02*
X77875312Y-60068323D01*
X77875312Y-60068323D02*
X77837217Y-59992133D01*
X77837217Y-59992133D02*
X77799122Y-59954038D01*
X77799122Y-59954038D02*
X77722931Y-59915942D01*
X77722931Y-59915942D02*
X77570550Y-59877847D01*
X77570550Y-59877847D02*
X77494360Y-59839752D01*
X77494360Y-59839752D02*
X77456265Y-59801657D01*
X77456265Y-59801657D02*
X77418169Y-59725466D01*
X77418169Y-59725466D02*
X77418169Y-59649276D01*
X77418169Y-59649276D02*
X77456265Y-59573085D01*
X77456265Y-59573085D02*
X77494360Y-59534990D01*
X77494360Y-59534990D02*
X77570550Y-59496895D01*
X77570550Y-59496895D02*
X77761027Y-59496895D01*
X77761027Y-59496895D02*
X77875312Y-59534990D01*
X78218170Y-60296895D02*
X78218170Y-59496895D01*
X78218170Y-59877847D02*
X78675313Y-59877847D01*
X78675313Y-60296895D02*
X78675313Y-59496895D01*
X79018169Y-60068323D02*
X79399122Y-60068323D01*
X78941979Y-60296895D02*
X79208646Y-59496895D01*
X79208646Y-59496895D02*
X79475312Y-60296895D01*
X79741979Y-60296895D02*
X79741979Y-59496895D01*
X79741979Y-59496895D02*
X79932455Y-59496895D01*
X79932455Y-59496895D02*
X80046741Y-59534990D01*
X80046741Y-59534990D02*
X80122931Y-59611180D01*
X80122931Y-59611180D02*
X80161026Y-59687371D01*
X80161026Y-59687371D02*
X80199122Y-59839752D01*
X80199122Y-59839752D02*
X80199122Y-59954038D01*
X80199122Y-59954038D02*
X80161026Y-60106419D01*
X80161026Y-60106419D02*
X80122931Y-60182609D01*
X80122931Y-60182609D02*
X80046741Y-60258800D01*
X80046741Y-60258800D02*
X79932455Y-60296895D01*
X79932455Y-60296895D02*
X79741979Y-60296895D01*
X80694360Y-59496895D02*
X80846741Y-59496895D01*
X80846741Y-59496895D02*
X80922931Y-59534990D01*
X80922931Y-59534990D02*
X80999122Y-59611180D01*
X80999122Y-59611180D02*
X81037217Y-59763561D01*
X81037217Y-59763561D02*
X81037217Y-60030228D01*
X81037217Y-60030228D02*
X80999122Y-60182609D01*
X80999122Y-60182609D02*
X80922931Y-60258800D01*
X80922931Y-60258800D02*
X80846741Y-60296895D01*
X80846741Y-60296895D02*
X80694360Y-60296895D01*
X80694360Y-60296895D02*
X80618169Y-60258800D01*
X80618169Y-60258800D02*
X80541979Y-60182609D01*
X80541979Y-60182609D02*
X80503883Y-60030228D01*
X80503883Y-60030228D02*
X80503883Y-59763561D01*
X80503883Y-59763561D02*
X80541979Y-59611180D01*
X80541979Y-59611180D02*
X80618169Y-59534990D01*
X80618169Y-59534990D02*
X80694360Y-59496895D01*
X81303883Y-59496895D02*
X81494359Y-60296895D01*
X81494359Y-60296895D02*
X81646740Y-59725466D01*
X81646740Y-59725466D02*
X81799121Y-60296895D01*
X81799121Y-60296895D02*
X81989598Y-59496895D01*
X83422931Y-55977847D02*
X83537217Y-56015942D01*
X83537217Y-56015942D02*
X83575312Y-56054038D01*
X83575312Y-56054038D02*
X83613408Y-56130228D01*
X83613408Y-56130228D02*
X83613408Y-56244514D01*
X83613408Y-56244514D02*
X83575312Y-56320704D01*
X83575312Y-56320704D02*
X83537217Y-56358800D01*
X83537217Y-56358800D02*
X83461027Y-56396895D01*
X83461027Y-56396895D02*
X83156265Y-56396895D01*
X83156265Y-56396895D02*
X83156265Y-55596895D01*
X83156265Y-55596895D02*
X83422931Y-55596895D01*
X83422931Y-55596895D02*
X83499122Y-55634990D01*
X83499122Y-55634990D02*
X83537217Y-55673085D01*
X83537217Y-55673085D02*
X83575312Y-55749276D01*
X83575312Y-55749276D02*
X83575312Y-55825466D01*
X83575312Y-55825466D02*
X83537217Y-55901657D01*
X83537217Y-55901657D02*
X83499122Y-55939752D01*
X83499122Y-55939752D02*
X83422931Y-55977847D01*
X83422931Y-55977847D02*
X83156265Y-55977847D01*
X83918169Y-55673085D02*
X83956265Y-55634990D01*
X83956265Y-55634990D02*
X84032455Y-55596895D01*
X84032455Y-55596895D02*
X84222931Y-55596895D01*
X84222931Y-55596895D02*
X84299122Y-55634990D01*
X84299122Y-55634990D02*
X84337217Y-55673085D01*
X84337217Y-55673085D02*
X84375312Y-55749276D01*
X84375312Y-55749276D02*
X84375312Y-55825466D01*
X84375312Y-55825466D02*
X84337217Y-55939752D01*
X84337217Y-55939752D02*
X83880074Y-56396895D01*
X83880074Y-56396895D02*
X84375312Y-56396895D01*
D12*
%TO.C,CSYNC_PAD*%
X102300000Y-80700000D02*
X103700000Y-80700000D01*
X102300000Y-82100000D02*
X102300000Y-80700000D01*
X103700000Y-80700000D02*
X103700000Y-82100000D01*
X103700000Y-82100000D02*
X102300000Y-82100000D01*
%TO.C,J2*%
X103700000Y-70950000D02*
X103700000Y-71350000D01*
X103700000Y-71350000D02*
X104100000Y-71150000D01*
X104100000Y-71150000D02*
X103700000Y-70950000D01*
X106290000Y-58575000D02*
X106890000Y-58575000D01*
X106290000Y-58685000D02*
X106290000Y-58575000D01*
X106290000Y-74115000D02*
X106290000Y-74225000D01*
X106290000Y-74225000D02*
X106890000Y-74225000D01*
%TD*%
M02*
