%TF.GenerationSoftware,KiCad,Pcbnew,9.0.6*%
%TF.CreationDate,2026-03-07T19:04:27-03:00*%
%TF.ProjectId,fpc,6670632e-6b69-4636-9164-5f7063625858,rev?*%
%TF.SameCoordinates,Original*%
%TF.FileFunction,Copper,L2,Bot*%
%TF.FilePolarity,Positive*%
%FSLAX46Y46*%
G04 Gerber Fmt 4.6, Leading zero omitted, Abs format (unit mm)*
G04 Created by KiCad (PCBNEW 9.0.6) date 2026-03-07 19:04:27*
%MOMM*%
%LPD*%
G01*
G04 APERTURE LIST*
G04 Aperture macros list*
%AMFreePoly0*
4,1,5,0.750000,-0.250000,-0.750000,-0.250000,-0.750000,0.250000,0.750000,0.250000,0.750000,-0.250000,0.750000,-0.250000,$1*%
G04 Aperture macros list end*
%TA.AperFunction,ComponentPad*%
%ADD10FreePoly0,0.000000*%
%TD*%
%TA.AperFunction,ViaPad*%
%ADD11C,0.600000*%
%TD*%
%TA.AperFunction,Conductor*%
%ADD12C,0.150000*%
%TD*%
G04 APERTURE END LIST*
D10*
%TO.P,J1,1,Pin_1*%
%TO.N,unconnected-(J1-Pin_1-Pad1)*%
X85525000Y-50945000D03*
%TO.P,J1,2,Pin_2*%
%TO.N,B1*%
X85525000Y-52215000D03*
%TO.P,J1,3,Pin_3*%
%TO.N,unconnected-(J1-Pin_3-Pad3)*%
X85525000Y-53485000D03*
%TO.P,J1,4,Pin_4*%
%TO.N,unconnected-(J1-Pin_4-Pad4)*%
X85525000Y-54755000D03*
%TO.P,J1,5,Pin_5*%
%TO.N,B2*%
X85525000Y-56025000D03*
%TO.P,J1,6,Pin_6*%
%TO.N,B3*%
X85525000Y-57295000D03*
%TO.P,J1,7,Pin_7*%
%TO.N,unconnected-(J1-Pin_7-Pad7)*%
X85525000Y-58565000D03*
%TO.P,J1,8,Pin_8*%
%TO.N,unconnected-(J1-Pin_8-Pad8)*%
X85525000Y-59835000D03*
%TO.P,J1,9,Pin_9*%
%TO.N,B4*%
X85525000Y-61105000D03*
%TO.P,J1,10,Pin_10*%
%TO.N,unconnected-(J1-Pin_10-Pad10)*%
X85525000Y-62375000D03*
%TO.P,J1,11,Pin_11*%
%TO.N,unconnected-(J1-Pin_11-Pad11)*%
X95475000Y-62380000D03*
%TO.P,J1,12,Pin_12*%
%TO.N,G1*%
X95475000Y-61110000D03*
%TO.P,J1,13,Pin_13*%
%TO.N,unconnected-(J1-Pin_13-Pad13)*%
X95475000Y-59840000D03*
%TO.P,J1,14,Pin_14*%
%TO.N,unconnected-(J1-Pin_14-Pad14)*%
X95475000Y-58570000D03*
%TO.P,J1,15,Pin_15*%
%TO.N,G2*%
X95475000Y-57300000D03*
%TO.P,J1,16,Pin_16*%
%TO.N,G3*%
X95475000Y-56030000D03*
%TO.P,J1,17,Pin_17*%
%TO.N,unconnected-(J1-Pin_17-Pad17)*%
X95475000Y-54760000D03*
%TO.P,J1,18,Pin_18*%
%TO.N,unconnected-(J1-Pin_18-Pad18)*%
X95475000Y-53490000D03*
%TO.P,J1,19,Pin_19*%
%TO.N,G4*%
X95475000Y-52220000D03*
%TO.P,J1,20,Pin_20*%
%TO.N,unconnected-(J1-Pin_20-Pad20)*%
X95475000Y-50950000D03*
%TO.P,J1,21,Pin_21*%
%TO.N,unconnected-(J1-Pin_21-Pad21)*%
X85525000Y-68770000D03*
%TO.P,J1,22,Pin_22*%
%TO.N,R1*%
X85525000Y-70040000D03*
%TO.P,J1,23,Pin_23*%
%TO.N,unconnected-(J1-Pin_23-Pad23)*%
X85525000Y-71310000D03*
%TO.P,J1,24,Pin_24*%
%TO.N,unconnected-(J1-Pin_24-Pad24)*%
X85525000Y-72580000D03*
%TO.P,J1,25,Pin_25*%
%TO.N,R2*%
X85525000Y-73850000D03*
%TO.P,J1,26,Pin_26*%
%TO.N,R3*%
X85525000Y-75120000D03*
%TO.P,J1,27,Pin_27*%
%TO.N,unconnected-(J1-Pin_27-Pad27)*%
X85525000Y-76390000D03*
%TO.P,J1,28,Pin_28*%
%TO.N,unconnected-(J1-Pin_28-Pad28)*%
X85525000Y-77660000D03*
%TO.P,J1,29,Pin_29*%
%TO.N,R4*%
X85525000Y-78930000D03*
%TO.P,J1,30,Pin_30*%
%TO.N,unconnected-(J1-Pin_30-Pad30)*%
X85525000Y-80200000D03*
%TO.P,J1,31,Pin_31*%
%TO.N,PCLK*%
X95475000Y-80200000D03*
%TO.P,J1,32,Pin_32*%
%TO.N,B0*%
X95475000Y-78930000D03*
%TO.P,J1,33,Pin_33*%
%TO.N,unconnected-(J1-Pin_33-Pad33)*%
X95475000Y-77660000D03*
%TO.P,J1,34,Pin_34*%
%TO.N,unconnected-(J1-Pin_34-Pad34)*%
X95475000Y-76390000D03*
%TO.P,J1,35,Pin_35*%
%TO.N,G0*%
X95475000Y-75120000D03*
%TO.P,J1,36,Pin_36*%
%TO.N,R0*%
X95475000Y-73850000D03*
%TO.P,J1,37,Pin_37*%
%TO.N,unconnected-(J1-Pin_37-Pad37)*%
X95475000Y-72580000D03*
%TO.P,J1,38,Pin_38*%
%TO.N,unconnected-(J1-Pin_38-Pad38)*%
X95475000Y-71310000D03*
%TO.P,J1,39,Pin_39*%
%TO.N,unconnected-(J1-Pin_39-Pad39)*%
X95475000Y-70040000D03*
%TO.P,J1,40,Pin_40*%
%TO.N,unconnected-(J1-Pin_40-Pad40)*%
X95475000Y-68770000D03*
%TO.P,J1,41,Pin_41*%
%TO.N,DARK*%
X66025000Y-53485000D03*
%TO.P,J1,42,Pin_42*%
%TO.N,unconnected-(J1-Pin_42-Pad42)*%
X66025000Y-54755000D03*
%TO.P,J1,43,Pin_43*%
%TO.N,unconnected-(J1-Pin_43-Pad43)*%
X66025000Y-56025000D03*
%TO.P,J1,44,Pin_44*%
%TO.N,unconnected-(J1-Pin_44-Pad44)*%
X66025000Y-57295000D03*
%TO.P,J1,45,Pin_45*%
%TO.N,unconnected-(J1-Pin_45-Pad45)*%
X66025000Y-58565000D03*
%TO.P,J1,46,Pin_46*%
%TO.N,unconnected-(J1-Pin_46-Pad46)*%
X66025000Y-59835000D03*
%TO.P,J1,47,Pin_47*%
%TO.N,unconnected-(J1-Pin_47-Pad47)*%
X66025000Y-61105000D03*
%TO.P,J1,48,Pin_48*%
%TO.N,unconnected-(J1-Pin_48-Pad48)*%
X75975000Y-53490000D03*
%TO.P,J1,49,Pin_49*%
%TO.N,unconnected-(J1-Pin_49-Pad49)*%
X75975000Y-54760000D03*
%TO.P,J1,50,Pin_50*%
%TO.N,unconnected-(J1-Pin_50-Pad50)*%
X75975000Y-56030000D03*
%TO.P,J1,51,Pin_51*%
%TO.N,unconnected-(J1-Pin_51-Pad51)*%
X75975000Y-57300000D03*
%TO.P,J1,52,Pin_52*%
%TO.N,unconnected-(J1-Pin_52-Pad52)*%
X75975000Y-58570000D03*
%TO.P,J1,53,Pin_53*%
%TO.N,SHADOW*%
X75975000Y-59840000D03*
%TO.P,J1,54,Pin_54*%
%TO.N,unconnected-(J1-Pin_54-Pad54)*%
X75975000Y-61110000D03*
%TD*%
D11*
%TO.N,B0*%
X104100000Y-66200000D03*
%TO.N,G0*%
X104100000Y-68700000D03*
%TO.N,PCLK*%
X104000000Y-62200000D03*
X96250000Y-80200000D03*
%TO.N,CSYNC*%
X106000000Y-63000000D03*
X103100000Y-80300000D03*
%TO.N,DARK*%
X101200000Y-61300000D03*
%TO.N,SHADOW*%
X101186194Y-62100000D03*
%TD*%
D12*
%TO.N,SHADOW*%
X94988587Y-63876000D02*
X80300000Y-63876000D01*
X76264000Y-59840000D02*
X80300000Y-63876000D01*
X75475000Y-59840000D02*
X76264000Y-59840000D01*
%TO.N,DARK*%
X98254000Y-61300000D02*
X95327000Y-64227000D01*
X95327000Y-64227000D02*
X65077000Y-64227000D01*
X65077000Y-64227000D02*
X64250000Y-63400000D01*
X64250000Y-63400000D02*
X64250000Y-54400000D01*
X101200000Y-61300000D02*
X98254000Y-61300000D01*
X64250000Y-54400000D02*
X65165000Y-53485000D01*
X65165000Y-53485000D02*
X66525000Y-53485000D01*
%TO.N,B0*%
X96800000Y-78900000D02*
X95326000Y-78900000D01*
X95326000Y-78900000D02*
X95326000Y-78930000D01*
X104700000Y-71000000D02*
X96800000Y-78900000D01*
X104100000Y-66200000D02*
X104700000Y-66800000D01*
X104700000Y-66800000D02*
X104700000Y-71000000D01*
%TO.N,G0*%
X98617000Y-75120000D02*
X95326000Y-75120000D01*
X104100000Y-69637000D02*
X98617000Y-75120000D01*
X104100000Y-68700000D02*
X104100000Y-69637000D01*
%TO.N,PCLK*%
X104000000Y-62200000D02*
X105000000Y-62200000D01*
X100000000Y-80200000D02*
X96250000Y-80200000D01*
X105300000Y-62500000D02*
X105300000Y-74900000D01*
X105000000Y-62200000D02*
X105300000Y-62500000D01*
X105300000Y-74900000D02*
X100000000Y-80200000D01*
%TO.N,CSYNC*%
X106000000Y-77400000D02*
X103100000Y-80300000D01*
X106000000Y-63000000D02*
X106000000Y-77400000D01*
%TO.N,SHADOW*%
X101438588Y-60724000D02*
X98140587Y-60724000D01*
X101214588Y-62100000D02*
X101776000Y-61538588D01*
X101776000Y-61061412D02*
X101438588Y-60724000D01*
X101186194Y-62100000D02*
X101214588Y-62100000D01*
X98140587Y-60724000D02*
X94988587Y-63876000D01*
X101776000Y-61538588D02*
X101776000Y-61061412D01*
%TD*%
%TA.AperFunction,Conductor*%
%TO.N,GND*%
G36*
X104643834Y-71972560D02*
G01*
X104699767Y-72014432D01*
X104724184Y-72079896D01*
X104724500Y-72088742D01*
X104724500Y-74610258D01*
X104704815Y-74677297D01*
X104688181Y-74697939D01*
X99797939Y-79588181D01*
X99736616Y-79621666D01*
X99710258Y-79624500D01*
X97158904Y-79624500D01*
X97091865Y-79604815D01*
X97046110Y-79552011D01*
X97036166Y-79482853D01*
X97065191Y-79419297D01*
X97096904Y-79393113D01*
X97102308Y-79389993D01*
X97153365Y-79360515D01*
X104512819Y-72001061D01*
X104574142Y-71967576D01*
X104643834Y-71972560D01*
G37*
%TD.AperFunction*%
%TA.AperFunction,Conductor*%
G36*
X99081790Y-75599884D02*
G01*
X99124981Y-75654804D01*
X99131623Y-75724358D01*
X99099608Y-75786461D01*
X99097545Y-75788573D01*
X96942181Y-77943938D01*
X96880858Y-77977423D01*
X96811166Y-77972439D01*
X96755233Y-77930567D01*
X96730816Y-77865103D01*
X96730500Y-77856257D01*
X96730500Y-77410000D01*
X96730500Y-77409999D01*
X96725355Y-77338060D01*
X96684819Y-77200008D01*
X96625474Y-77107666D01*
X96614490Y-77090574D01*
X96594805Y-77023534D01*
X96614490Y-76956495D01*
X96625087Y-76942337D01*
X96650254Y-76913294D01*
X96700500Y-76803270D01*
X96710023Y-76782419D01*
X96710024Y-76782414D01*
X96730500Y-76640000D01*
X96730500Y-76140000D01*
X96725355Y-76068060D01*
X96684819Y-75930008D01*
X96656882Y-75886538D01*
X96637199Y-75819500D01*
X96656884Y-75752460D01*
X96709688Y-75706706D01*
X96761199Y-75695500D01*
X98692764Y-75695500D01*
X98692766Y-75695500D01*
X98839135Y-75656281D01*
X98947864Y-75593505D01*
X99015763Y-75577032D01*
X99081790Y-75599884D01*
G37*
%TD.AperFunction*%
%TA.AperFunction,Conductor*%
G36*
X104508363Y-47320185D02*
G01*
X104529005Y-47336819D01*
X107363181Y-50170995D01*
X107396666Y-50232318D01*
X107399500Y-50258676D01*
X107399500Y-80780936D01*
X107379815Y-80847975D01*
X107372328Y-80858398D01*
X106096677Y-82452962D01*
X106039426Y-82493014D01*
X105999849Y-82499500D01*
X82958676Y-82499500D01*
X82891637Y-82479815D01*
X82870995Y-82463181D01*
X81436819Y-81029005D01*
X81403334Y-80967682D01*
X81400500Y-80941324D01*
X81400500Y-68519999D01*
X84269500Y-68519999D01*
X84269500Y-69020002D01*
X84274644Y-69091940D01*
X84295338Y-69162414D01*
X84315181Y-69229992D01*
X84355860Y-69293290D01*
X84385510Y-69339426D01*
X84405194Y-69406465D01*
X84385509Y-69473505D01*
X84374908Y-69487666D01*
X84349750Y-69516700D01*
X84349744Y-69516709D01*
X84289976Y-69647580D01*
X84289975Y-69647585D01*
X84269500Y-69789999D01*
X84269500Y-70290002D01*
X84274644Y-70361940D01*
X84293566Y-70426380D01*
X84315181Y-70499992D01*
X84315182Y-70499993D01*
X84385510Y-70609426D01*
X84405194Y-70676465D01*
X84385509Y-70743505D01*
X84374908Y-70757666D01*
X84349750Y-70786700D01*
X84349744Y-70786709D01*
X84289976Y-70917580D01*
X84289975Y-70917585D01*
X84269500Y-71059999D01*
X84269500Y-71560002D01*
X84274644Y-71631940D01*
X84295338Y-71702414D01*
X84315181Y-71769992D01*
X84315182Y-71769993D01*
X84385510Y-71879426D01*
X84405194Y-71946465D01*
X84385509Y-72013505D01*
X84374908Y-72027666D01*
X84349750Y-72056700D01*
X84349744Y-72056709D01*
X84289976Y-72187580D01*
X84289975Y-72187585D01*
X84269500Y-72329999D01*
X84269500Y-72830002D01*
X84274644Y-72901940D01*
X84295338Y-72972414D01*
X84315181Y-73039992D01*
X84315182Y-73039993D01*
X84385510Y-73149426D01*
X84405194Y-73216465D01*
X84385509Y-73283505D01*
X84374908Y-73297666D01*
X84349750Y-73326700D01*
X84349744Y-73326709D01*
X84289976Y-73457580D01*
X84289975Y-73457585D01*
X84269500Y-73599999D01*
X84269500Y-74100002D01*
X84274644Y-74171940D01*
X84298400Y-74252844D01*
X84315181Y-74309992D01*
X84315182Y-74309993D01*
X84385510Y-74419426D01*
X84405194Y-74486465D01*
X84385509Y-74553505D01*
X84374908Y-74567666D01*
X84349750Y-74596700D01*
X84349744Y-74596709D01*
X84289976Y-74727580D01*
X84289975Y-74727585D01*
X84269500Y-74869999D01*
X84269500Y-75370002D01*
X84274644Y-75441940D01*
X84295339Y-75512416D01*
X84315181Y-75579992D01*
X84323866Y-75593506D01*
X84385510Y-75689426D01*
X84405194Y-75756465D01*
X84385509Y-75823505D01*
X84374908Y-75837666D01*
X84349750Y-75866700D01*
X84349744Y-75866709D01*
X84289976Y-75997580D01*
X84289975Y-75997585D01*
X84269500Y-76139999D01*
X84269500Y-76640002D01*
X84274644Y-76711940D01*
X84295338Y-76782414D01*
X84315181Y-76849992D01*
X84315182Y-76849993D01*
X84385510Y-76959426D01*
X84405194Y-77026465D01*
X84385509Y-77093505D01*
X84374908Y-77107666D01*
X84349750Y-77136700D01*
X84349744Y-77136709D01*
X84289976Y-77267580D01*
X84289975Y-77267585D01*
X84269500Y-77409999D01*
X84269500Y-77910002D01*
X84274644Y-77981940D01*
X84295339Y-78052416D01*
X84315181Y-78119992D01*
X84315182Y-78119993D01*
X84385510Y-78229426D01*
X84405194Y-78296465D01*
X84385509Y-78363505D01*
X84374908Y-78377666D01*
X84349750Y-78406700D01*
X84349744Y-78406709D01*
X84289976Y-78537580D01*
X84289975Y-78537585D01*
X84269500Y-78679999D01*
X84269500Y-79180002D01*
X84274644Y-79251940D01*
X84295339Y-79322416D01*
X84315181Y-79389992D01*
X84315182Y-79389993D01*
X84385510Y-79499426D01*
X84405194Y-79566465D01*
X84385509Y-79633505D01*
X84374908Y-79647666D01*
X84349750Y-79676700D01*
X84349744Y-79676709D01*
X84289976Y-79807580D01*
X84289975Y-79807585D01*
X84269500Y-79949999D01*
X84269500Y-80450002D01*
X84274644Y-80521940D01*
X84315182Y-80659994D01*
X84392967Y-80781030D01*
X84392971Y-80781034D01*
X84482253Y-80858398D01*
X84501706Y-80875254D01*
X84542174Y-80893735D01*
X84632580Y-80935023D01*
X84632583Y-80935023D01*
X84632584Y-80935024D01*
X84775000Y-80955500D01*
X85625500Y-80955500D01*
X85692539Y-80975185D01*
X85738294Y-81027989D01*
X85749500Y-81079500D01*
X85749500Y-81165891D01*
X85783608Y-81293187D01*
X85807349Y-81334307D01*
X85849500Y-81407314D01*
X85942686Y-81500500D01*
X86056814Y-81566392D01*
X86184108Y-81600500D01*
X86184110Y-81600500D01*
X94815890Y-81600500D01*
X94815892Y-81600500D01*
X94943186Y-81566392D01*
X95057314Y-81500500D01*
X95150500Y-81407314D01*
X95216392Y-81293186D01*
X95250500Y-81165892D01*
X95250500Y-81079500D01*
X95270185Y-81012461D01*
X95322989Y-80966706D01*
X95374500Y-80955500D01*
X95957467Y-80955500D01*
X96004919Y-80964938D01*
X96016503Y-80969737D01*
X96131875Y-80992686D01*
X96171153Y-81000499D01*
X96171156Y-81000500D01*
X96171158Y-81000500D01*
X96328844Y-81000500D01*
X96328845Y-81000499D01*
X96483497Y-80969737D01*
X96629179Y-80909394D01*
X96760289Y-80821789D01*
X96760292Y-80821786D01*
X96770260Y-80811819D01*
X96831583Y-80778334D01*
X96857941Y-80775500D01*
X100075764Y-80775500D01*
X100075766Y-80775500D01*
X100222135Y-80736281D01*
X100353365Y-80660515D01*
X105212819Y-75801061D01*
X105274142Y-75767576D01*
X105343834Y-75772560D01*
X105399767Y-75814432D01*
X105424184Y-75879896D01*
X105424500Y-75888742D01*
X105424500Y-77110258D01*
X105404815Y-77177297D01*
X105388181Y-77197939D01*
X103122939Y-79463181D01*
X103061616Y-79496666D01*
X103035258Y-79499500D01*
X103021155Y-79499500D01*
X102866510Y-79530261D01*
X102866498Y-79530264D01*
X102720827Y-79590602D01*
X102720814Y-79590609D01*
X102589711Y-79678210D01*
X102589707Y-79678213D01*
X102478213Y-79789707D01*
X102478210Y-79789711D01*
X102390609Y-79920814D01*
X102390602Y-79920827D01*
X102330264Y-80066498D01*
X102330261Y-80066510D01*
X102299500Y-80221153D01*
X102299500Y-80378846D01*
X102330261Y-80533489D01*
X102330264Y-80533501D01*
X102390602Y-80679172D01*
X102390609Y-80679185D01*
X102478210Y-80810288D01*
X102478213Y-80810292D01*
X102589707Y-80921786D01*
X102589711Y-80921789D01*
X102720814Y-81009390D01*
X102720827Y-81009397D01*
X102789636Y-81037898D01*
X102866503Y-81069737D01*
X103021153Y-81100499D01*
X103021156Y-81100500D01*
X103021158Y-81100500D01*
X103178844Y-81100500D01*
X103178845Y-81100499D01*
X103333497Y-81069737D01*
X103479179Y-81009394D01*
X103610289Y-80921789D01*
X103721789Y-80810289D01*
X103809394Y-80679179D01*
X103869737Y-80533497D01*
X103900500Y-80378842D01*
X103900500Y-80364742D01*
X103920185Y-80297703D01*
X103936819Y-80277061D01*
X106460512Y-77753368D01*
X106460514Y-77753366D01*
X106470676Y-77735766D01*
X106536281Y-77622135D01*
X106575500Y-77475766D01*
X106575500Y-63607940D01*
X106595185Y-63540901D01*
X106611822Y-63520256D01*
X106621787Y-63510291D01*
X106621789Y-63510289D01*
X106709394Y-63379179D01*
X106769737Y-63233497D01*
X106800500Y-63078842D01*
X106800500Y-62921158D01*
X106800500Y-62921155D01*
X106800499Y-62921153D01*
X106782889Y-62832622D01*
X106769737Y-62766503D01*
X106769735Y-62766498D01*
X106709397Y-62620827D01*
X106709390Y-62620814D01*
X106621789Y-62489711D01*
X106621786Y-62489707D01*
X106510292Y-62378213D01*
X106510288Y-62378210D01*
X106379185Y-62290609D01*
X106379172Y-62290602D01*
X106233501Y-62230264D01*
X106233489Y-62230261D01*
X106078845Y-62199500D01*
X106078842Y-62199500D01*
X105921158Y-62199500D01*
X105921157Y-62199500D01*
X105891587Y-62205381D01*
X105821996Y-62199152D01*
X105766819Y-62156287D01*
X105760901Y-62147138D01*
X105760513Y-62146633D01*
X105353367Y-61739487D01*
X105353365Y-61739485D01*
X105275837Y-61694724D01*
X105222136Y-61663719D01*
X105148950Y-61644109D01*
X105075766Y-61624500D01*
X105075765Y-61624500D01*
X104607941Y-61624500D01*
X104540902Y-61604815D01*
X104520260Y-61588181D01*
X104510292Y-61578213D01*
X104510288Y-61578210D01*
X104379185Y-61490609D01*
X104379172Y-61490602D01*
X104233501Y-61430264D01*
X104233489Y-61430261D01*
X104078845Y-61399500D01*
X104078842Y-61399500D01*
X103921158Y-61399500D01*
X103921155Y-61399500D01*
X103766510Y-61430261D01*
X103766498Y-61430264D01*
X103620827Y-61490602D01*
X103620814Y-61490609D01*
X103489711Y-61578210D01*
X103489707Y-61578213D01*
X103378213Y-61689707D01*
X103378210Y-61689711D01*
X103290609Y-61820814D01*
X103290602Y-61820827D01*
X103230264Y-61966498D01*
X103230261Y-61966510D01*
X103199500Y-62121153D01*
X103199500Y-62278846D01*
X103230261Y-62433489D01*
X103230264Y-62433501D01*
X103290602Y-62579172D01*
X103290609Y-62579185D01*
X103378210Y-62710288D01*
X103378213Y-62710292D01*
X103489707Y-62821786D01*
X103489711Y-62821789D01*
X103620814Y-62909390D01*
X103620827Y-62909397D01*
X103766498Y-62969735D01*
X103766503Y-62969737D01*
X103921153Y-63000499D01*
X103921156Y-63000500D01*
X103921158Y-63000500D01*
X104078844Y-63000500D01*
X104078845Y-63000499D01*
X104233497Y-62969737D01*
X104379179Y-62909394D01*
X104510289Y-62821789D01*
X104512814Y-62819263D01*
X104514464Y-62818362D01*
X104514999Y-62817924D01*
X104515082Y-62818025D01*
X104574133Y-62785776D01*
X104643825Y-62790755D01*
X104699762Y-62832622D01*
X104724183Y-62898085D01*
X104724500Y-62906940D01*
X104724500Y-65422536D01*
X104704815Y-65489575D01*
X104652011Y-65535330D01*
X104582853Y-65545274D01*
X104531609Y-65525638D01*
X104479185Y-65490609D01*
X104479172Y-65490602D01*
X104333501Y-65430264D01*
X104333489Y-65430261D01*
X104178845Y-65399500D01*
X104178842Y-65399500D01*
X104021158Y-65399500D01*
X104021155Y-65399500D01*
X103866510Y-65430261D01*
X103866498Y-65430264D01*
X103720827Y-65490602D01*
X103720814Y-65490609D01*
X103589711Y-65578210D01*
X103589707Y-65578213D01*
X103478213Y-65689707D01*
X103478210Y-65689711D01*
X103390609Y-65820814D01*
X103390602Y-65820827D01*
X103330264Y-65966498D01*
X103330261Y-65966510D01*
X103299500Y-66121153D01*
X103299500Y-66278846D01*
X103330261Y-66433489D01*
X103330264Y-66433501D01*
X103390602Y-66579172D01*
X103390609Y-66579185D01*
X103478210Y-66710288D01*
X103478213Y-66710292D01*
X103589707Y-66821786D01*
X103589711Y-66821789D01*
X103720814Y-66909390D01*
X103720827Y-66909397D01*
X103866498Y-66969735D01*
X103866503Y-66969737D01*
X103964993Y-66989328D01*
X104024691Y-67001203D01*
X104086602Y-67033588D01*
X104121176Y-67094303D01*
X104124500Y-67122820D01*
X104124500Y-67777179D01*
X104104815Y-67844218D01*
X104052011Y-67889973D01*
X104024692Y-67898796D01*
X103866508Y-67930261D01*
X103866498Y-67930264D01*
X103720827Y-67990602D01*
X103720814Y-67990609D01*
X103589711Y-68078210D01*
X103589707Y-68078213D01*
X103478213Y-68189707D01*
X103478210Y-68189711D01*
X103390609Y-68320814D01*
X103390602Y-68320827D01*
X103330264Y-68466498D01*
X103330261Y-68466510D01*
X103299500Y-68621153D01*
X103299500Y-68778846D01*
X103330261Y-68933489D01*
X103330264Y-68933501D01*
X103390602Y-69079172D01*
X103390609Y-69079185D01*
X103478210Y-69210288D01*
X103478212Y-69210291D01*
X103488178Y-69220256D01*
X103502882Y-69247183D01*
X103519477Y-69273005D01*
X103520368Y-69279203D01*
X103521665Y-69281578D01*
X103524500Y-69307940D01*
X103524500Y-69347258D01*
X103504815Y-69414297D01*
X103488181Y-69434939D01*
X98414939Y-74508181D01*
X98353616Y-74541666D01*
X98327258Y-74544500D01*
X96765015Y-74544500D01*
X96697976Y-74524815D01*
X96652221Y-74472011D01*
X96642277Y-74402853D01*
X96652221Y-74368989D01*
X96710022Y-74242422D01*
X96710024Y-74242414D01*
X96730500Y-74100000D01*
X96730500Y-73600000D01*
X96725355Y-73528060D01*
X96684819Y-73390008D01*
X96625474Y-73297666D01*
X96614490Y-73280574D01*
X96594805Y-73213534D01*
X96614490Y-73146495D01*
X96625087Y-73132337D01*
X96650254Y-73103294D01*
X96700500Y-72993270D01*
X96710023Y-72972419D01*
X96710024Y-72972414D01*
X96730500Y-72830000D01*
X96730500Y-72330000D01*
X96725355Y-72258060D01*
X96684819Y-72120008D01*
X96664725Y-72088742D01*
X96614490Y-72010574D01*
X96594805Y-71943534D01*
X96614490Y-71876495D01*
X96625087Y-71862337D01*
X96650254Y-71833294D01*
X96700500Y-71723270D01*
X96710023Y-71702419D01*
X96710024Y-71702414D01*
X96730500Y-71560000D01*
X96730500Y-71060000D01*
X96725355Y-70988060D01*
X96684819Y-70850008D01*
X96625474Y-70757666D01*
X96614490Y-70740574D01*
X96594805Y-70673534D01*
X96614490Y-70606495D01*
X96625087Y-70592337D01*
X96650254Y-70563294D01*
X96700500Y-70453270D01*
X96710023Y-70432419D01*
X96710024Y-70432414D01*
X96710892Y-70426380D01*
X96730500Y-70290000D01*
X96730500Y-69790000D01*
X96725355Y-69718060D01*
X96684819Y-69580008D01*
X96625474Y-69487666D01*
X96614490Y-69470574D01*
X96594805Y-69403534D01*
X96614490Y-69336495D01*
X96625087Y-69322337D01*
X96650254Y-69293294D01*
X96700500Y-69183270D01*
X96710023Y-69162419D01*
X96710024Y-69162414D01*
X96730500Y-69020000D01*
X96730500Y-68520000D01*
X96725355Y-68448060D01*
X96684819Y-68310008D01*
X96671771Y-68289705D01*
X96607032Y-68188969D01*
X96607028Y-68188965D01*
X96498299Y-68094750D01*
X96498297Y-68094748D01*
X96498294Y-68094746D01*
X96498290Y-68094744D01*
X96367419Y-68034976D01*
X96367414Y-68034975D01*
X96225000Y-68014500D01*
X95374500Y-68014500D01*
X95307461Y-67994815D01*
X95261706Y-67942011D01*
X95250500Y-67890500D01*
X95250500Y-67684110D01*
X95250500Y-67684108D01*
X95216392Y-67556814D01*
X95150500Y-67442686D01*
X95057314Y-67349500D01*
X95000250Y-67316554D01*
X94943187Y-67283608D01*
X94879539Y-67266554D01*
X94815892Y-67249500D01*
X86315892Y-67249500D01*
X86184108Y-67249500D01*
X86056812Y-67283608D01*
X85942686Y-67349500D01*
X85942683Y-67349502D01*
X85849502Y-67442683D01*
X85849500Y-67442686D01*
X85783608Y-67556812D01*
X85749500Y-67684108D01*
X85749500Y-67890500D01*
X85729815Y-67957539D01*
X85677011Y-68003294D01*
X85625500Y-68014500D01*
X84774997Y-68014500D01*
X84703059Y-68019644D01*
X84565005Y-68060182D01*
X84443969Y-68137967D01*
X84443965Y-68137971D01*
X84349750Y-68246700D01*
X84349744Y-68246709D01*
X84289976Y-68377580D01*
X84289975Y-68377585D01*
X84269500Y-68519999D01*
X81400500Y-68519999D01*
X81400500Y-67064109D01*
X81400500Y-67064108D01*
X81389253Y-67022135D01*
X81366392Y-66936814D01*
X81300500Y-66822686D01*
X79491995Y-65014181D01*
X79458510Y-64952858D01*
X79463494Y-64883166D01*
X79505366Y-64827233D01*
X79570830Y-64802816D01*
X79579676Y-64802500D01*
X95402764Y-64802500D01*
X95402766Y-64802500D01*
X95549135Y-64763281D01*
X95680365Y-64687515D01*
X98456061Y-61911819D01*
X98517384Y-61878334D01*
X98543742Y-61875500D01*
X100263573Y-61875500D01*
X100330612Y-61895185D01*
X100376367Y-61947989D01*
X100386011Y-62015067D01*
X100386291Y-62015095D01*
X100386179Y-62016230D01*
X100386311Y-62017147D01*
X100385788Y-62020197D01*
X100385694Y-62021157D01*
X100385694Y-62178846D01*
X100416455Y-62333489D01*
X100416458Y-62333501D01*
X100476796Y-62479172D01*
X100476803Y-62479185D01*
X100564404Y-62610288D01*
X100564407Y-62610292D01*
X100675901Y-62721786D01*
X100675905Y-62721789D01*
X100807008Y-62809390D01*
X100807021Y-62809397D01*
X100906254Y-62850500D01*
X100952697Y-62869737D01*
X101095211Y-62898085D01*
X101107347Y-62900499D01*
X101107350Y-62900500D01*
X101107352Y-62900500D01*
X101265038Y-62900500D01*
X101265039Y-62900499D01*
X101419691Y-62869737D01*
X101565373Y-62809394D01*
X101696483Y-62721789D01*
X101807983Y-62610289D01*
X101895588Y-62479179D01*
X101955931Y-62333497D01*
X101970682Y-62259334D01*
X101987883Y-62172868D01*
X101989874Y-62173264D01*
X102012550Y-62117097D01*
X102022108Y-62106359D01*
X102236514Y-61891954D01*
X102244649Y-61877865D01*
X102246015Y-61875500D01*
X102259755Y-61851700D01*
X102312281Y-61760723D01*
X102329965Y-61694724D01*
X102351500Y-61614355D01*
X102351500Y-61462822D01*
X102351500Y-60985646D01*
X102312281Y-60839277D01*
X102236515Y-60708047D01*
X102129365Y-60600897D01*
X101791953Y-60263485D01*
X101726338Y-60225602D01*
X101660724Y-60187719D01*
X101564513Y-60161940D01*
X101514354Y-60148500D01*
X98216353Y-60148500D01*
X98064820Y-60148500D01*
X97918450Y-60187719D01*
X97787222Y-60263485D01*
X97787219Y-60263487D01*
X96942181Y-61108526D01*
X96880858Y-61142011D01*
X96811166Y-61137027D01*
X96755233Y-61095155D01*
X96730816Y-61029691D01*
X96730500Y-61020845D01*
X96730500Y-60860000D01*
X96725355Y-60788060D01*
X96684819Y-60650008D01*
X96614490Y-60540574D01*
X96594805Y-60473534D01*
X96614490Y-60406495D01*
X96625087Y-60392337D01*
X96650254Y-60363294D01*
X96702784Y-60248270D01*
X96710023Y-60232419D01*
X96710024Y-60232414D01*
X96716450Y-60187719D01*
X96730500Y-60090000D01*
X96730500Y-59590000D01*
X96725355Y-59518060D01*
X96684819Y-59380008D01*
X96614490Y-59270574D01*
X96594805Y-59203534D01*
X96614490Y-59136495D01*
X96625087Y-59122337D01*
X96650254Y-59093294D01*
X96702784Y-58978270D01*
X96710023Y-58962419D01*
X96710024Y-58962414D01*
X96710743Y-58957416D01*
X96730500Y-58820000D01*
X96730500Y-58320000D01*
X96725355Y-58248060D01*
X96684819Y-58110008D01*
X96614490Y-58000574D01*
X96594805Y-57933534D01*
X96614490Y-57866495D01*
X96625087Y-57852337D01*
X96650254Y-57823294D01*
X96702784Y-57708270D01*
X96710023Y-57692419D01*
X96710024Y-57692414D01*
X96710743Y-57687416D01*
X96730500Y-57550000D01*
X96730500Y-57050000D01*
X96725355Y-56978060D01*
X96684819Y-56840008D01*
X96614490Y-56730574D01*
X96594805Y-56663534D01*
X96614490Y-56596495D01*
X96625087Y-56582337D01*
X96650254Y-56553294D01*
X96702784Y-56438270D01*
X96710023Y-56422419D01*
X96710024Y-56422414D01*
X96710743Y-56417416D01*
X96730500Y-56280000D01*
X96730500Y-55780000D01*
X96725355Y-55708060D01*
X96684819Y-55570008D01*
X96614490Y-55460574D01*
X96594805Y-55393534D01*
X96614490Y-55326495D01*
X96625087Y-55312337D01*
X96650254Y-55283294D01*
X96702784Y-55168270D01*
X96710023Y-55152419D01*
X96710024Y-55152414D01*
X96710743Y-55147416D01*
X96730500Y-55010000D01*
X96730500Y-54510000D01*
X96725355Y-54438060D01*
X96684819Y-54300008D01*
X96614490Y-54190574D01*
X96594805Y-54123534D01*
X96614490Y-54056495D01*
X96625087Y-54042337D01*
X96650254Y-54013294D01*
X96702784Y-53898270D01*
X96710023Y-53882419D01*
X96710024Y-53882414D01*
X96710743Y-53877416D01*
X96730500Y-53740000D01*
X96730500Y-53240000D01*
X96725355Y-53168060D01*
X96684819Y-53030008D01*
X96614490Y-52920574D01*
X96594805Y-52853534D01*
X96614490Y-52786495D01*
X96625087Y-52772337D01*
X96650254Y-52743294D01*
X96692632Y-52650500D01*
X96710023Y-52612419D01*
X96710024Y-52612414D01*
X96711018Y-52605500D01*
X96730500Y-52470000D01*
X96730500Y-51970000D01*
X96725355Y-51898060D01*
X96684819Y-51760008D01*
X96614490Y-51650574D01*
X96594805Y-51583534D01*
X96614490Y-51516495D01*
X96625087Y-51502337D01*
X96650254Y-51473294D01*
X96691542Y-51382884D01*
X96710023Y-51342419D01*
X96710024Y-51342414D01*
X96730500Y-51200000D01*
X96730500Y-50700000D01*
X96725355Y-50628060D01*
X96684819Y-50490008D01*
X96607031Y-50368968D01*
X96542405Y-50312969D01*
X96498299Y-50274750D01*
X96498297Y-50274748D01*
X96498294Y-50274746D01*
X96498290Y-50274744D01*
X96367419Y-50214976D01*
X96367414Y-50214975D01*
X96225000Y-50194500D01*
X95374500Y-50194500D01*
X95307461Y-50174815D01*
X95261706Y-50122011D01*
X95250500Y-50070500D01*
X95250500Y-49859110D01*
X95250500Y-49859108D01*
X95216392Y-49731814D01*
X95150500Y-49617686D01*
X95057314Y-49524500D01*
X95000250Y-49491554D01*
X94943187Y-49458608D01*
X94879539Y-49441554D01*
X94815892Y-49424500D01*
X86365892Y-49424500D01*
X86234108Y-49424500D01*
X86106812Y-49458608D01*
X85992686Y-49524500D01*
X85992683Y-49524502D01*
X85899502Y-49617683D01*
X85899500Y-49617686D01*
X85833608Y-49731812D01*
X85799500Y-49859108D01*
X85799500Y-50065500D01*
X85779815Y-50132539D01*
X85727011Y-50178294D01*
X85675500Y-50189500D01*
X84774997Y-50189500D01*
X84703059Y-50194644D01*
X84565005Y-50235182D01*
X84443969Y-50312967D01*
X84443965Y-50312971D01*
X84349750Y-50421700D01*
X84349744Y-50421709D01*
X84289976Y-50552580D01*
X84289975Y-50552585D01*
X84269500Y-50694999D01*
X84269500Y-51195002D01*
X84274644Y-51266940D01*
X84296806Y-51342414D01*
X84315181Y-51404992D01*
X84315182Y-51404993D01*
X84385510Y-51514426D01*
X84405194Y-51581465D01*
X84385509Y-51648505D01*
X84374908Y-51662666D01*
X84349750Y-51691700D01*
X84349744Y-51691709D01*
X84289976Y-51822580D01*
X84289975Y-51822585D01*
X84269500Y-51964999D01*
X84269500Y-52465002D01*
X84274644Y-52536940D01*
X84294776Y-52605500D01*
X84315181Y-52674992D01*
X84315182Y-52674993D01*
X84385510Y-52784426D01*
X84405194Y-52851465D01*
X84385509Y-52918505D01*
X84374908Y-52932666D01*
X84349750Y-52961700D01*
X84349744Y-52961709D01*
X84289976Y-53092580D01*
X84289975Y-53092585D01*
X84269500Y-53234999D01*
X84269500Y-53735002D01*
X84274644Y-53806940D01*
X84295339Y-53877416D01*
X84315181Y-53944992D01*
X84315182Y-53944993D01*
X84385510Y-54054426D01*
X84405194Y-54121465D01*
X84385509Y-54188505D01*
X84374908Y-54202666D01*
X84349750Y-54231700D01*
X84349744Y-54231709D01*
X84289976Y-54362580D01*
X84289975Y-54362585D01*
X84269500Y-54504999D01*
X84269500Y-55005002D01*
X84274644Y-55076940D01*
X84295339Y-55147416D01*
X84315181Y-55214992D01*
X84315182Y-55214993D01*
X84385510Y-55324426D01*
X84405194Y-55391465D01*
X84385509Y-55458505D01*
X84374908Y-55472666D01*
X84349750Y-55501700D01*
X84349744Y-55501709D01*
X84289976Y-55632580D01*
X84289975Y-55632585D01*
X84269500Y-55774999D01*
X84269500Y-56275002D01*
X84274644Y-56346940D01*
X84295339Y-56417416D01*
X84315181Y-56484992D01*
X84315182Y-56484993D01*
X84385510Y-56594426D01*
X84405194Y-56661465D01*
X84385509Y-56728505D01*
X84374908Y-56742666D01*
X84349750Y-56771700D01*
X84349744Y-56771709D01*
X84289976Y-56902580D01*
X84289975Y-56902585D01*
X84269500Y-57044999D01*
X84269500Y-57545002D01*
X84274644Y-57616940D01*
X84295339Y-57687416D01*
X84315181Y-57754992D01*
X84315182Y-57754993D01*
X84385510Y-57864426D01*
X84405194Y-57931465D01*
X84385509Y-57998505D01*
X84374908Y-58012666D01*
X84349750Y-58041700D01*
X84349744Y-58041709D01*
X84289976Y-58172580D01*
X84289975Y-58172585D01*
X84269500Y-58314999D01*
X84269500Y-58815002D01*
X84274644Y-58886940D01*
X84295339Y-58957416D01*
X84315181Y-59024992D01*
X84315182Y-59024993D01*
X84385510Y-59134426D01*
X84405194Y-59201465D01*
X84385509Y-59268505D01*
X84374908Y-59282666D01*
X84349750Y-59311700D01*
X84349744Y-59311709D01*
X84289976Y-59442580D01*
X84289975Y-59442585D01*
X84269500Y-59584999D01*
X84269500Y-60085002D01*
X84274644Y-60156940D01*
X84295339Y-60227416D01*
X84315181Y-60294992D01*
X84315182Y-60294993D01*
X84385510Y-60404426D01*
X84405194Y-60471465D01*
X84385509Y-60538505D01*
X84374908Y-60552666D01*
X84349750Y-60581700D01*
X84349744Y-60581709D01*
X84289976Y-60712580D01*
X84289975Y-60712585D01*
X84269500Y-60854999D01*
X84269500Y-61355002D01*
X84274644Y-61426940D01*
X84293338Y-61490602D01*
X84315181Y-61564992D01*
X84323678Y-61578213D01*
X84385510Y-61674426D01*
X84405194Y-61741465D01*
X84385509Y-61808505D01*
X84374908Y-61822666D01*
X84349750Y-61851700D01*
X84349744Y-61851709D01*
X84289976Y-61982580D01*
X84289975Y-61982585D01*
X84269500Y-62124999D01*
X84269500Y-62625002D01*
X84274644Y-62696940D01*
X84297419Y-62774500D01*
X84311304Y-62821789D01*
X84315182Y-62834994D01*
X84392967Y-62956030D01*
X84392969Y-62956032D01*
X84501706Y-63050254D01*
X84501709Y-63050255D01*
X84501710Y-63050256D01*
X84531161Y-63063706D01*
X84583965Y-63109461D01*
X84603649Y-63176501D01*
X84583964Y-63243540D01*
X84531160Y-63289295D01*
X84479649Y-63300500D01*
X80589742Y-63300500D01*
X80522703Y-63280815D01*
X80502061Y-63264181D01*
X77266819Y-60028939D01*
X77233334Y-59967616D01*
X77230500Y-59941258D01*
X77230500Y-59590000D01*
X77225355Y-59518060D01*
X77184819Y-59380008D01*
X77114490Y-59270574D01*
X77094805Y-59203534D01*
X77114490Y-59136495D01*
X77125087Y-59122337D01*
X77150254Y-59093294D01*
X77202784Y-58978270D01*
X77210023Y-58962419D01*
X77210024Y-58962414D01*
X77210743Y-58957416D01*
X77230500Y-58820000D01*
X77230500Y-58320000D01*
X77225355Y-58248060D01*
X77184819Y-58110008D01*
X77114490Y-58000574D01*
X77094805Y-57933534D01*
X77114490Y-57866495D01*
X77125087Y-57852337D01*
X77150254Y-57823294D01*
X77202784Y-57708270D01*
X77210023Y-57692419D01*
X77210024Y-57692414D01*
X77210743Y-57687416D01*
X77230500Y-57550000D01*
X77230500Y-57050000D01*
X77225355Y-56978060D01*
X77184819Y-56840008D01*
X77114490Y-56730574D01*
X77094805Y-56663534D01*
X77114490Y-56596495D01*
X77125087Y-56582337D01*
X77150254Y-56553294D01*
X77202784Y-56438270D01*
X77210023Y-56422419D01*
X77210024Y-56422414D01*
X77210743Y-56417416D01*
X77230500Y-56280000D01*
X77230500Y-55780000D01*
X77225355Y-55708060D01*
X77184819Y-55570008D01*
X77114490Y-55460574D01*
X77094805Y-55393534D01*
X77114490Y-55326495D01*
X77125087Y-55312337D01*
X77150254Y-55283294D01*
X77202784Y-55168270D01*
X77210023Y-55152419D01*
X77210024Y-55152414D01*
X77210743Y-55147416D01*
X77230500Y-55010000D01*
X77230500Y-54510000D01*
X77225355Y-54438060D01*
X77184819Y-54300008D01*
X77114490Y-54190574D01*
X77094805Y-54123534D01*
X77114490Y-54056495D01*
X77125087Y-54042337D01*
X77150254Y-54013294D01*
X77202784Y-53898270D01*
X77210023Y-53882419D01*
X77210024Y-53882414D01*
X77210743Y-53877416D01*
X77230500Y-53740000D01*
X77230500Y-53240000D01*
X77225355Y-53168060D01*
X77184819Y-53030008D01*
X77107031Y-52908968D01*
X77043057Y-52853534D01*
X76998299Y-52814750D01*
X76998297Y-52814748D01*
X76998294Y-52814746D01*
X76998290Y-52814744D01*
X76867419Y-52754976D01*
X76867414Y-52754975D01*
X76725000Y-52734500D01*
X75874500Y-52734500D01*
X75807461Y-52714815D01*
X75761706Y-52662011D01*
X75750500Y-52610500D01*
X75750500Y-52084110D01*
X75750500Y-52084108D01*
X75716392Y-51956814D01*
X75650500Y-51842686D01*
X75557314Y-51749500D01*
X75500250Y-51716554D01*
X75443187Y-51683608D01*
X75379539Y-51666554D01*
X75315892Y-51649500D01*
X66815892Y-51649500D01*
X66684108Y-51649500D01*
X66556812Y-51683608D01*
X66442686Y-51749500D01*
X66442683Y-51749502D01*
X66349502Y-51842683D01*
X66349500Y-51842686D01*
X66283608Y-51956812D01*
X66249500Y-52084108D01*
X66249500Y-52605500D01*
X66229815Y-52672539D01*
X66177011Y-52718294D01*
X66125500Y-52729500D01*
X65274997Y-52729500D01*
X65203059Y-52734644D01*
X65065005Y-52775182D01*
X64943969Y-52852967D01*
X64943965Y-52852971D01*
X64849748Y-52961702D01*
X64849743Y-52961709D01*
X64838301Y-52986764D01*
X64835053Y-52991442D01*
X64834359Y-52994641D01*
X64813217Y-53022902D01*
X64811662Y-53024458D01*
X64811634Y-53024486D01*
X63789487Y-54046632D01*
X63789485Y-54046635D01*
X63713719Y-54177863D01*
X63680992Y-54300005D01*
X63674500Y-54324234D01*
X63674500Y-63324234D01*
X63674500Y-63475766D01*
X63683750Y-63510288D01*
X63713719Y-63622136D01*
X63730673Y-63651500D01*
X63789485Y-63753365D01*
X63789487Y-63753367D01*
X64453939Y-64417819D01*
X64487424Y-64479142D01*
X64482440Y-64548834D01*
X64440568Y-64604767D01*
X64375104Y-64629184D01*
X64366258Y-64629500D01*
X62438676Y-64629500D01*
X62371637Y-64609815D01*
X62350995Y-64593181D01*
X61536819Y-63779005D01*
X61503334Y-63717682D01*
X61500500Y-63691324D01*
X61500500Y-48208676D01*
X61520185Y-48141637D01*
X61536819Y-48120995D01*
X62320995Y-47336819D01*
X62382318Y-47303334D01*
X62408676Y-47300500D01*
X104441324Y-47300500D01*
X104508363Y-47320185D01*
G37*
%TD.AperFunction*%
%TA.AperFunction,Conductor*%
G36*
X77287678Y-61677558D02*
G01*
X79049939Y-63439819D01*
X79083424Y-63501142D01*
X79078440Y-63570834D01*
X79036568Y-63626767D01*
X78971104Y-63651184D01*
X78962258Y-63651500D01*
X65366742Y-63651500D01*
X65299703Y-63631815D01*
X65279061Y-63615181D01*
X64861819Y-63197939D01*
X64828334Y-63136616D01*
X64825500Y-63110258D01*
X64825500Y-61892731D01*
X64845185Y-61825692D01*
X64897989Y-61779937D01*
X64967147Y-61769993D01*
X65001012Y-61779937D01*
X65132580Y-61840023D01*
X65132583Y-61840023D01*
X65132584Y-61840024D01*
X65275000Y-61860500D01*
X66125500Y-61860500D01*
X66192539Y-61880185D01*
X66238294Y-61932989D01*
X66249500Y-61984500D01*
X66249500Y-62415891D01*
X66283608Y-62543187D01*
X66304392Y-62579185D01*
X66349500Y-62657314D01*
X66442686Y-62750500D01*
X66556814Y-62816392D01*
X66684108Y-62850500D01*
X66684110Y-62850500D01*
X75315890Y-62850500D01*
X75315892Y-62850500D01*
X75443186Y-62816392D01*
X75557314Y-62750500D01*
X75650500Y-62657314D01*
X75716392Y-62543186D01*
X75750500Y-62415892D01*
X75750500Y-61989500D01*
X75770185Y-61922461D01*
X75822989Y-61876706D01*
X75874500Y-61865500D01*
X76725000Y-61865500D01*
X76796940Y-61860355D01*
X76934992Y-61819819D01*
X77056032Y-61742031D01*
X77106287Y-61684033D01*
X77165062Y-61646262D01*
X77234932Y-61646262D01*
X77287678Y-61677558D01*
G37*
%TD.AperFunction*%
%TD*%
M02*
